<svg width="22" height="22" viewBox="0 0 22 22" fill="none" xmlns="http://www.w3.org/2000/svg">
<path d="M21.5438 10.8234L12.1673 0.900617L11.5388 0.235159C11.3956 0.0845357 11.2019 0 11 0C10.7982 0 10.6045 0.0845357 10.4613 0.235159L0.456308 10.8234C0.309572 10.9781 0.193604 11.1625 0.11525 11.3655C0.036895 11.5685 -0.0022583 11.786 0.000100583 12.0053C0.00980713 12.9097 0.720812 13.6317 1.57499 13.6317H2.60631V22H19.3938V13.6317H20.4469C20.8619 13.6317 21.2526 13.4595 21.5462 13.1486C21.6908 12.9961 21.8053 12.8146 21.8832 12.6148C21.9611 12.415 22.0008 12.2009 22 11.9847C22 11.5479 21.8374 11.1343 21.5438 10.8234ZM12.359 20.1501H9.64113V14.9086H12.359V20.1501ZM17.6466 11.7818V20.1501H13.912V14.292C13.912 13.7242 13.4776 13.2643 12.9414 13.2643H9.05873C8.52245 13.2643 8.08808 13.7242 8.08808 14.292V20.1501H4.35349V11.7818H2.02392L11.0025 2.28292L11.563 2.87644L19.9786 11.7818H17.6466Z" fill="#FF9F0A"/>
</svg>
