<svg width="19" height="22" viewBox="0 0 19 22" fill="none" xmlns="http://www.w3.org/2000/svg">
<path d="M3.83447 21.0508C2.76123 21.0508 1.95459 20.7842 1.41455 20.251C0.881348 19.7246 0.614746 18.9316 0.614746 17.8721V7.25928C0.614746 6.19971 0.881348 5.40674 1.41455 4.88037C1.95459 4.34717 2.76123 4.08057 3.83447 4.08057H15.5957C16.6621 4.08057 17.4653 4.34717 18.0054 4.88037C18.5454 5.40674 18.8154 6.19971 18.8154 7.25928V17.8721C18.8154 18.9316 18.5591 19.7246 18.0464 20.251C17.5337 20.7842 16.8193 21.0508 15.9033 21.0508H3.83447ZM3.85498 19.3999H15.8726C16.228 19.3999 16.5322 19.2666 16.7852 19C17.0381 18.7266 17.1646 18.3232 17.1646 17.79V7.34131C17.1646 6.80811 17.0244 6.4082 16.7441 6.1416C16.4639 5.86816 16.0708 5.73145 15.5649 5.73145H3.85498C3.34229 5.73145 2.94922 5.86816 2.67578 6.1416C2.40234 6.4082 2.26562 6.80811 2.26562 7.34131V17.79C2.26562 18.3232 2.40234 18.7266 2.67578 19C2.94922 19.2666 3.34229 19.3999 3.85498 19.3999ZM5.46484 4.17285C5.46484 3.44141 5.65625 2.76807 6.03906 2.15283C6.42188 1.53076 6.93457 1.03174 7.57715 0.655762C8.21973 0.279785 8.93066 0.0917969 9.70996 0.0917969C10.4961 0.0917969 11.2104 0.279785 11.853 0.655762C12.4956 1.03174 13.0049 1.53076 13.3809 2.15283C13.7637 2.76807 13.9551 3.44141 13.9551 4.17285H12.3042C12.3042 3.70801 12.1914 3.2876 11.9658 2.91162C11.7402 2.52881 11.4326 2.22461 11.043 1.99902C10.6533 1.7666 10.209 1.65039 9.70996 1.65039C9.21777 1.65039 8.77686 1.7666 8.38721 1.99902C7.99756 2.22461 7.68652 2.52881 7.4541 2.91162C7.22852 3.2876 7.11572 3.70801 7.11572 4.17285H5.46484Z" fill="#FF9F0A"/>
</svg>
