<svg width="22" height="21" viewBox="0 0 22 21" fill="none" xmlns="http://www.w3.org/2000/svg">
<path d="M5 8H9" stroke="#FF9F0A" stroke-width="1.5" stroke-linecap="round" stroke-linejoin="round"/>
<path d="M19.833 9H17.231C15.446 9 14 10.343 14 12C14 13.657 15.447 15 17.23 15H19.833C19.917 15 19.958 15 19.993 14.998C20.533 14.965 20.963 14.566 20.998 14.065C21 14.033 21 13.994 21 13.917V10.083C21 10.006 21 9.967 20.998 9.935C20.962 9.434 20.533 9.035 19.993 9.002C19.958 9 19.917 9 19.833 9Z" stroke="#FF9F0A" stroke-width="1.5"/>
<path d="M19.965 9C19.887 7.128 19.637 5.98 18.828 5.172C17.657 4 15.771 4 12 4H9C5.229 4 3.343 4 2.172 5.172C1 6.343 1 8.229 1 12C1 15.771 1 17.657 2.172 18.828C3.343 20 5.229 20 9 20H12C15.771 20 17.657 20 18.828 18.828C19.637 18.02 19.888 16.872 19.965 15" stroke="#FF9F0A" stroke-width="1.5"/>
<path d="M5 4.00004L8.735 1.52304C9.26026 1.18138 9.8734 0.999512 10.5 0.999512C11.1266 0.999512 11.7397 1.18138 12.265 1.52304L16 4.00004" stroke="#FF9F0A" stroke-width="1.5" stroke-linecap="round"/>
<path d="M16.991 12H17.001" stroke="#FF9F0A" stroke-width="2" stroke-linecap="round" stroke-linejoin="round"/>
</svg>
