<svg width="25" height="24" viewBox="0 0 25 24" fill="none" xmlns="http://www.w3.org/2000/svg">
<g clip-path="url(#clip0_31_652)">
<path d="M6.656 20.479C6.51242 20.6038 6.3362 20.6851 6.14803 20.7133C5.95987 20.7415 5.76756 20.7155 5.59369 20.6382C5.41982 20.5609 5.2716 20.4357 5.16644 20.2771C5.06128 20.1185 5.00354 19.9332 5 19.743V17.5C4.46957 17.5 3.96086 17.2893 3.58579 16.9142C3.21071 16.5391 3 16.0304 3 15.5V8.5C3 7.96957 3.21071 7.46086 3.58579 7.08579C3.96086 6.71071 4.46957 6.5 5 6.5H16C16.5304 6.5 17.0391 6.71071 17.4142 7.08579C17.7893 7.46086 18 7.96957 18 8.5V15.5C18 16.0304 17.7893 16.5391 17.4142 16.9142C17.0391 17.2893 16.5304 17.5 16 17.5H11.003L6.656 20.479ZM19 12.517C18.9968 12.64 18.9968 12.763 19 12.886V12.517ZM19 12.517C19.005 12.41 19.006 11.07 19.004 8.498C19.0032 7.70287 18.6868 6.94058 18.1243 6.37862C17.5617 5.81666 16.7991 5.501 16.004 5.501H8V4.5C8 3.96957 8.21071 3.46086 8.58579 3.08579C8.96086 2.71071 9.46957 2.5 10 2.5H21C21.5304 2.5 22.0391 2.71071 22.4142 3.08579C22.7893 3.46086 23 3.96957 23 4.5V11.5C23 12.0304 22.7893 12.5391 22.4142 12.9142C22.0391 13.2893 21.5304 13.5 21 13.5V15.743C20.9965 15.9332 20.9387 16.1185 20.8336 16.2771C20.7284 16.4357 20.5802 16.5609 20.4063 16.6382C20.2324 16.7155 20.0401 16.7415 19.852 16.7133C19.6638 16.6851 19.4876 16.6038 19.344 16.479L19 16.243V12.517Z" fill="#FAFAFA"/>
</g>
<defs>
<clipPath id="clip0_31_652">
<rect width="24" height="24" fill="white" transform="translate(0.666748)"/>
</clipPath>
</defs>
</svg>
